<svg width="42" height="42" viewBox="0 0 42 42" fill="none" xmlns="http://www.w3.org/2000/svg">
<circle cx="21" cy="21" r="20" stroke="black" stroke-width="2"/>
<path d="M10.365 18.1584L20.355 27.8559C20.5307 28.0316 20.7407 28.1194 20.985 28.1194C21.2294 28.1194 21.4491 28.0316 21.6441 27.8559L31.6341 18.1584C31.7903 17.9828 31.8685 17.7778 31.8685 17.5434C31.8685 17.3091 31.7807 17.1041 31.605 16.9284C31.4294 16.7528 31.2244 16.665 30.99 16.665C30.7557 16.665 30.5507 16.7528 30.375 16.9284L21 26.0691L11.625 16.9284C11.4494 16.7528 11.2444 16.665 11.01 16.665C10.7757 16.665 10.5707 16.7528 10.395 16.9284C10.2194 17.1041 10.1316 17.3091 10.1316 17.5434C10.1316 17.7778 10.2097 17.9828 10.366 18.1584L10.365 18.1584Z" fill="black"/>
</svg>
