<svg width="390" height="844" viewBox="0 0 390 844" fill="none" xmlns="http://www.w3.org/2000/svg">
<g clip-path="url(#clip0_2_13)">
<rect width="390" height="844" rx="20" fill="white"/>
<path d="M321.666 86.1241C320.857 86.1241 320.048 86.1241 319.255 86.2892C317.158 86.2892 315.078 86.6029 312.981 86.9331C311.049 87.4119 308.952 87.8908 307.021 88.6998C290.757 94.4952 280.619 110.115 280.124 127.17C280.603 144.226 290.592 159.681 307.004 165.641C308.936 166.45 311.033 166.764 312.964 167.408C315.061 167.573 317.142 168.052 319.239 168.052C320.048 168.052 320.857 168.217 321.649 168.217C333.405 168.217 344.831 162.752 352.393 153.737L363.983 163.709C353.516 175.944 337.748 183.341 321.649 183.341C317.786 183.341 313.922 182.862 310.059 182.218C307.169 181.574 304.428 180.93 301.853 179.808C279.48 171.915 265.314 150.666 265 127.17C265.479 99.4815 282.865 78.8758 310.075 72.1227C313.939 71.4788 317.802 71 321.666 71C337.764 71 353.532 78.3969 364 90.6316L352.409 100.456C344.831 91.6057 333.405 86.1241 321.666 86.1241Z" fill="black"/>
<path d="M313.939 219.434L363.356 332.105H347.588L313.939 256.782L281.098 332.105H265L313.939 219.434Z" fill="black"/>
<path d="M269.953 480.704V368.033L345.277 443.043V368.033H360.566V480.06L285.077 404.093V480.704H269.953Z" fill="black"/>
<path d="M355.728 586.507C350.742 606.634 337.219 619.347 318.232 626.579C316.135 627.058 314.038 627.702 311.957 628.032C309.86 628.362 307.764 628.841 305.683 628.989C303.917 628.989 301.82 629.155 300.218 629.155H269.953V516.797L301.176 516.632C327.891 516.632 350.758 535.471 356.223 561.212C357.99 569.599 357.825 578.136 355.728 586.507ZM341.413 564.283C337.236 545.609 320.642 531.921 301.176 531.921H285.077V613.849L300.202 614.014C301.803 614.014 303.091 613.849 304.544 613.7C305.997 613.7 307.598 613.387 309.051 613.221C310.653 612.908 312.106 612.412 313.559 612.099C315.012 611.455 316.613 610.976 317.901 610.332C329.492 605.181 337.863 595.208 341.083 582.808C342.536 576.848 342.701 570.408 341.413 564.283Z" fill="black"/>
<path d="M350.362 665.231L322.838 722.855V777.737H307.384V722.855L279.86 665.231H296.767L315.111 703.867L333.455 665.231H350.362Z" fill="black"/>
<path d="M40.304 680L43.184 670.992H45.856L48.816 680H47.072L46.304 677.456H42.8L42.032 680H40.304ZM44.544 671.68L43.184 676.192H45.92L44.544 671.68ZM53.7025 680.176C52.8278 680.176 52.0598 680 51.3985 679.648C50.7478 679.296 50.2465 678.779 49.8945 678.096C49.5425 677.403 49.3772 676.555 49.3985 675.552C49.4092 674.539 49.6065 673.68 49.9905 672.976C50.3852 672.272 50.9238 671.739 51.6065 671.376C52.2892 671.013 53.0785 670.832 53.9745 670.832C55.2012 670.832 56.1505 671.099 56.8225 671.632C57.4945 672.165 57.9425 672.939 58.1665 673.952L56.5985 674.176C56.4385 673.504 56.1078 673.035 55.6065 672.768C55.1158 672.501 54.5718 672.368 53.9745 672.368C52.9505 672.368 52.1985 672.645 51.7185 673.2C51.2492 673.755 51.0092 674.496 50.9985 675.424C50.9985 676.448 51.2705 677.237 51.8145 677.792C52.3585 678.336 53.1372 678.608 54.1505 678.608C54.7692 678.608 55.3292 678.464 55.8305 678.176C56.3318 677.877 56.6572 677.403 56.8065 676.752H54.8225V675.552H58.3425V680H57.2385L56.8705 678.432H56.8385C56.7318 678.699 56.5452 678.965 56.2785 679.232C56.0225 679.499 55.6812 679.723 55.2545 679.904C54.8278 680.085 54.3105 680.176 53.7025 680.176ZM61.4953 678.688H66.4713V680H59.8793V670.992H66.3113V672.4H61.4953V674.768H65.1913V676.112H61.4953V678.688ZM74.1349 670.992H75.8309V680H72.7269L69.6389 671.712H69.6069V680H67.9269V670.992H70.8069L74.1029 679.28H74.1349V670.992ZM81.566 680.16C80.7233 680.16 79.9607 679.989 79.278 679.648C78.5953 679.296 78.0513 678.779 77.646 678.096C77.2513 677.413 77.054 676.56 77.054 675.536C77.0647 674.533 77.2673 673.68 77.662 672.976C78.0567 672.272 78.5953 671.739 79.278 671.376C79.9607 671.013 80.7393 670.832 81.614 670.832C82.446 670.832 83.1553 670.981 83.742 671.28C84.3287 671.579 84.798 671.984 85.15 672.496C85.5127 673.008 85.7473 673.584 85.854 674.224H84.174C84.0993 673.755 83.9233 673.387 83.646 673.12C83.3793 672.843 83.0647 672.651 82.702 672.544C82.3393 672.427 81.9767 672.368 81.614 672.368C80.6647 672.368 79.934 672.635 79.422 673.168C78.9207 673.701 78.67 674.453 78.67 675.424C78.67 676.459 78.9153 677.253 79.406 677.808C79.9073 678.363 80.6327 678.64 81.582 678.64C81.9767 678.64 82.3607 678.581 82.734 678.464C83.1073 678.336 83.4273 678.133 83.694 677.856C83.9607 677.568 84.1313 677.184 84.206 676.704H85.902C85.7847 677.365 85.5447 677.957 85.182 678.48C84.83 678.992 84.35 679.403 83.742 679.712C83.1447 680.011 82.4193 680.16 81.566 680.16ZM91.351 678.608V680H87.335V678.608H88.551V672.4H87.335V670.992H91.351V672.4H90.167V678.608H91.351ZM92.7259 680L95.6059 670.992H98.2779L101.238 680H99.4939L98.7259 677.456H95.2219L94.4539 680H92.7259ZM96.9659 671.68L95.6059 676.192H98.3419L96.9659 671.68ZM114.089 675.488C114.089 676.672 113.854 677.595 113.385 678.256C112.926 678.907 112.275 679.36 111.433 679.616C110.59 679.872 109.598 680 108.457 680H105.977V670.992H108.457C109.598 670.992 110.59 671.163 111.433 671.504C112.275 671.835 112.926 672.331 113.385 672.992C113.854 673.653 114.089 674.485 114.089 675.488ZM107.593 678.656H108.921C109.625 678.656 110.233 678.576 110.745 678.416C111.257 678.245 111.651 677.931 111.929 677.472C112.206 677.013 112.345 676.347 112.345 675.472C112.345 674.437 112.035 673.669 111.417 673.168C110.809 672.656 109.977 672.4 108.921 672.4H107.593V678.656ZM117.136 678.688H122.112V680H115.52V670.992H121.952V672.4H117.136V674.768H120.832V676.112H117.136V678.688ZM130.988 680.16C130.145 680.16 129.383 679.989 128.7 679.648C128.017 679.296 127.473 678.779 127.068 678.096C126.673 677.413 126.476 676.56 126.476 675.536C126.487 674.533 126.689 673.68 127.084 672.976C127.479 672.272 128.017 671.739 128.7 671.376C129.383 671.013 130.161 670.832 131.036 670.832C131.868 670.832 132.577 670.981 133.164 671.28C133.751 671.579 134.22 671.984 134.572 672.496C134.935 673.008 135.169 673.584 135.276 674.224H133.596C133.521 673.755 133.345 673.387 133.068 673.12C132.801 672.843 132.487 672.651 132.124 672.544C131.761 672.427 131.399 672.368 131.036 672.368C130.087 672.368 129.356 672.635 128.844 673.168C128.343 673.701 128.092 674.453 128.092 675.424C128.092 676.459 128.337 677.253 128.828 677.808C129.329 678.363 130.055 678.64 131.004 678.64C131.399 678.64 131.783 678.581 132.156 678.464C132.529 678.336 132.849 678.133 133.116 677.856C133.383 677.568 133.553 677.184 133.628 676.704H135.324C135.207 677.365 134.967 677.957 134.604 678.48C134.252 678.992 133.772 679.403 133.164 679.712C132.567 680.011 131.841 680.16 130.988 680.16ZM140.565 680.224C139.114 680.224 138.005 679.803 137.237 678.96C136.469 678.107 136.085 676.96 136.085 675.52C136.085 674.571 136.25 673.749 136.581 673.056C136.912 672.352 137.408 671.808 138.069 671.424C138.741 671.029 139.573 670.832 140.565 670.832C142.037 670.832 143.152 671.259 143.909 672.112C144.666 672.955 145.045 674.091 145.045 675.52C145.045 676.448 144.874 677.269 144.533 677.984C144.192 678.688 143.69 679.237 143.029 679.632C142.368 680.027 141.546 680.224 140.565 680.224ZM140.549 678.656C141.509 678.656 142.229 678.357 142.709 677.76C143.2 677.163 143.445 676.416 143.445 675.52C143.445 674.912 143.338 674.373 143.125 673.904C142.912 673.424 142.592 673.051 142.165 672.784C141.738 672.507 141.2 672.368 140.549 672.368C139.61 672.368 138.896 672.656 138.405 673.232C137.914 673.808 137.669 674.571 137.669 675.52C137.669 676.107 137.77 676.64 137.973 677.12C138.186 677.589 138.506 677.963 138.933 678.24C139.36 678.517 139.898 678.656 140.549 678.656ZM146.522 680V670.992H149.37L151.482 679.296H151.514L153.61 670.992H156.442V680H154.746L154.858 671.728H154.842L152.682 680H150.282L148.154 671.728H148.122L148.218 680H146.522ZM159.888 680H158.256V670.992H161.872C162.874 670.992 163.653 671.243 164.208 671.744C164.762 672.245 165.04 673.003 165.04 674.016C165.04 674.901 164.752 675.595 164.176 676.096C163.61 676.597 162.842 676.848 161.872 676.848H159.888V680ZM161.648 672.32H159.888V675.648H161.648C162.224 675.648 162.688 675.509 163.04 675.232C163.392 674.955 163.568 674.539 163.568 673.984C163.568 673.419 163.392 673.003 163.04 672.736C162.698 672.459 162.234 672.32 161.648 672.32ZM166.412 680V670.992H169.724C170.886 670.992 171.793 671.189 172.444 671.584C173.094 671.968 173.42 672.651 173.42 673.632C173.42 674.368 173.244 674.965 172.892 675.424C172.54 675.872 172.033 676.096 171.372 676.096C171.745 676.096 172.022 676.181 172.204 676.352C172.396 676.512 172.529 676.715 172.604 676.96C172.678 677.205 172.732 677.461 172.764 677.728C172.796 677.995 172.833 678.235 172.876 678.448C172.929 678.651 173.025 678.795 173.164 678.88C173.313 678.965 173.542 678.949 173.852 678.832V679.776C173.649 679.947 173.409 680.059 173.132 680.112C172.854 680.176 172.582 680.16 172.316 680.064C172.049 679.968 171.825 679.781 171.644 679.504C171.462 679.216 171.372 678.816 171.372 678.304C171.372 677.835 171.345 677.461 171.292 677.184C171.238 676.896 171.105 676.683 170.892 676.544C170.678 676.395 170.348 676.304 169.9 676.272C169.452 676.229 168.833 676.229 168.044 676.272V680H166.412ZM168.044 675.088H169.66C170.182 675.088 170.614 675.067 170.956 675.024C171.297 674.971 171.548 674.853 171.708 674.672C171.878 674.48 171.964 674.176 171.964 673.76C171.964 673.301 171.862 672.971 171.66 672.768C171.457 672.565 171.158 672.443 170.764 672.4C170.38 672.347 169.905 672.32 169.34 672.32H168.044V675.088ZM174.851 680L177.731 670.992H180.403L183.363 680H181.619L180.851 677.456H177.347L176.579 680H174.851ZM179.091 671.68L177.731 676.192H180.467L179.091 671.68ZM188.025 680.176C187.535 680.176 187.049 680.117 186.569 680C186.1 679.883 185.673 679.701 185.289 679.456C184.905 679.211 184.601 678.891 184.377 678.496C184.153 678.091 184.036 677.605 184.025 677.04H185.673C185.673 677.093 185.695 677.211 185.737 677.392C185.78 677.563 185.876 677.749 186.025 677.952C186.185 678.155 186.431 678.331 186.761 678.48C187.103 678.629 187.561 678.704 188.137 678.704C188.767 678.704 189.231 678.587 189.529 678.352C189.839 678.117 189.993 677.867 189.993 677.6C189.993 677.301 189.887 677.067 189.673 676.896C189.471 676.715 189.193 676.571 188.841 676.464C188.5 676.347 188.121 676.24 187.705 676.144C187.3 676.048 186.889 675.941 186.473 675.824C186.068 675.696 185.695 675.531 185.353 675.328C185.023 675.115 184.761 674.843 184.569 674.512C184.377 674.181 184.292 673.76 184.313 673.248C184.367 672.491 184.729 671.899 185.401 671.472C186.073 671.045 186.964 670.832 188.073 670.832C188.713 670.832 189.305 670.949 189.849 671.184C190.404 671.408 190.847 671.749 191.177 672.208C191.519 672.656 191.689 673.232 191.689 673.936H190.105C190.105 673.605 190.031 673.339 189.881 673.136C189.732 672.923 189.54 672.763 189.305 672.656C189.081 672.539 188.841 672.464 188.585 672.432C188.329 672.389 188.1 672.368 187.897 672.368C187.364 672.368 186.921 672.459 186.569 672.64C186.228 672.821 186.057 673.088 186.057 673.44C186.047 673.739 186.148 673.979 186.361 674.16C186.575 674.341 186.857 674.485 187.209 674.592C187.561 674.699 187.945 674.795 188.361 674.88C188.777 674.965 189.193 675.072 189.609 675.2C190.025 675.317 190.404 675.477 190.745 675.68C191.087 675.872 191.353 676.139 191.545 676.48C191.737 676.811 191.817 677.243 191.785 677.776C191.743 678.533 191.375 679.125 190.681 679.552C189.988 679.968 189.103 680.176 188.025 680.176ZM49.12 696.488C49.12 697.672 48.8853 698.595 48.416 699.256C47.9573 699.907 47.3067 700.36 46.464 700.616C45.6213 700.872 44.6293 701 43.488 701H41.008V691.992H43.488C44.6293 691.992 45.6213 692.163 46.464 692.504C47.3067 692.835 47.9573 693.331 48.416 693.992C48.8853 694.653 49.12 695.485 49.12 696.488ZM42.624 699.656H43.952C44.656 699.656 45.264 699.576 45.776 699.416C46.288 699.245 46.6827 698.931 46.96 698.472C47.2373 698.013 47.376 697.347 47.376 696.472C47.376 695.437 47.0667 694.669 46.448 694.168C45.84 693.656 45.008 693.4 43.952 693.4H42.624V699.656ZM52.1671 699.688H57.1431V701H50.5511V691.992H56.9831V693.4H52.1671V695.768H55.8631V697.112H52.1671V699.688ZM62.2111 701V691.992H63.8431V699.608H68.2911V701H62.2111ZM73.4399 701.224C71.9892 701.224 70.8799 700.803 70.1119 699.96C69.3439 699.107 68.9599 697.96 68.9599 696.52C68.9599 695.571 69.1252 694.749 69.4559 694.056C69.7865 693.352 70.2825 692.808 70.9439 692.424C71.6159 692.029 72.4479 691.832 73.4399 691.832C74.9119 691.832 76.0265 692.259 76.7839 693.112C77.5412 693.955 77.9199 695.091 77.9199 696.52C77.9199 697.448 77.7492 698.269 77.4079 698.984C77.0665 699.688 76.5652 700.237 75.9039 700.632C75.2425 701.027 74.4212 701.224 73.4399 701.224ZM73.4239 699.656C74.3839 699.656 75.1039 699.357 75.5839 698.76C76.0745 698.163 76.3199 697.416 76.3199 696.52C76.3199 695.912 76.2132 695.373 75.9999 694.904C75.7865 694.424 75.4665 694.051 75.0399 693.784C74.6132 693.507 74.0745 693.368 73.4239 693.368C72.4852 693.368 71.7705 693.656 71.2799 694.232C70.7892 694.808 70.5439 695.571 70.5439 696.52C70.5439 697.107 70.6452 697.64 70.8479 698.12C71.0612 698.589 71.3812 698.963 71.8079 699.24C72.2345 699.517 72.7732 699.656 73.4239 699.656ZM82.8848 701.176C82.3941 701.176 81.9088 701.117 81.4288 701C80.9594 700.883 80.5328 700.701 80.1488 700.456C79.7648 700.211 79.4608 699.891 79.2368 699.496C79.0128 699.091 78.8954 698.605 78.8848 698.04H80.5328C80.5328 698.093 80.5541 698.211 80.5968 698.392C80.6394 698.563 80.7354 698.749 80.8848 698.952C81.0448 699.155 81.2901 699.331 81.6208 699.48C81.9621 699.629 82.4208 699.704 82.9968 699.704C83.6261 699.704 84.0901 699.587 84.3888 699.352C84.6981 699.117 84.8528 698.867 84.8528 698.6C84.8528 698.301 84.7461 698.067 84.5328 697.896C84.3301 697.715 84.0528 697.571 83.7008 697.464C83.3594 697.347 82.9808 697.24 82.5648 697.144C82.1594 697.048 81.7488 696.941 81.3328 696.824C80.9274 696.696 80.5541 696.531 80.2128 696.328C79.8821 696.115 79.6208 695.843 79.4288 695.512C79.2368 695.181 79.1514 694.76 79.1728 694.248C79.2261 693.491 79.5888 692.899 80.2608 692.472C80.9328 692.045 81.8234 691.832 82.9328 691.832C83.5728 691.832 84.1648 691.949 84.7088 692.184C85.2634 692.408 85.7061 692.749 86.0368 693.208C86.3781 693.656 86.5487 694.232 86.5487 694.936H84.9648C84.9648 694.605 84.8901 694.339 84.7408 694.136C84.5914 693.923 84.3994 693.763 84.1648 693.656C83.9408 693.539 83.7008 693.464 83.4448 693.432C83.1888 693.389 82.9594 693.368 82.7568 693.368C82.2234 693.368 81.7808 693.459 81.4288 693.64C81.0874 693.821 80.9168 694.088 80.9168 694.44C80.9061 694.739 81.0074 694.979 81.2208 695.16C81.4341 695.341 81.7168 695.485 82.0688 695.592C82.4208 695.699 82.8048 695.795 83.2208 695.88C83.6368 695.965 84.0528 696.072 84.4688 696.2C84.8848 696.317 85.2634 696.477 85.6048 696.68C85.9461 696.872 86.2128 697.139 86.4048 697.48C86.5968 697.811 86.6768 698.243 86.6448 698.776C86.6021 699.533 86.2341 700.125 85.5408 700.552C84.8474 700.968 83.9621 701.176 82.8848 701.176ZM91.1321 701L94.0121 691.992H96.6841L99.6441 701H97.9001L97.1321 698.456H93.6281L92.8601 701H91.1321ZM95.3721 692.68L94.0121 697.192H96.7481L95.3721 692.68ZM106.979 691.992H108.675V701H105.571L102.483 692.712H102.451V701H100.771V691.992H103.651L106.947 700.28H106.979V691.992ZM114.234 701.176C113.359 701.176 112.591 701 111.93 700.648C111.279 700.296 110.778 699.779 110.426 699.096C110.074 698.403 109.908 697.555 109.93 696.552C109.94 695.539 110.138 694.68 110.522 693.976C110.916 693.272 111.455 692.739 112.138 692.376C112.82 692.013 113.61 691.832 114.506 691.832C115.732 691.832 116.682 692.099 117.354 692.632C118.026 693.165 118.474 693.939 118.698 694.952L117.13 695.176C116.97 694.504 116.639 694.035 116.138 693.768C115.647 693.501 115.103 693.368 114.506 693.368C113.482 693.368 112.73 693.645 112.25 694.2C111.78 694.755 111.54 695.496 111.53 696.424C111.53 697.448 111.802 698.237 112.346 698.792C112.89 699.336 113.668 699.608 114.682 699.608C115.3 699.608 115.86 699.464 116.362 699.176C116.863 698.877 117.188 698.403 117.338 697.752H115.354V696.552H118.874V701H117.77L117.402 699.432H117.37C117.263 699.699 117.076 699.965 116.81 700.232C116.554 700.499 116.212 700.723 115.786 700.904C115.359 701.085 114.842 701.176 114.234 701.176ZM122.027 699.688H127.003V701H120.411V691.992H126.843V693.4H122.027V695.768H125.723V697.112H122.027V699.688ZM128.586 701V691.992H130.218V699.608H134.666V701H128.586ZM137.558 699.688H142.534V701H135.942V691.992H142.374V693.4H137.558V695.768H141.254V697.112H137.558V699.688ZM147.525 701.176C147.035 701.176 146.549 701.117 146.069 701C145.6 700.883 145.173 700.701 144.789 700.456C144.405 700.211 144.101 699.891 143.877 699.496C143.653 699.091 143.536 698.605 143.525 698.04H145.173C145.173 698.093 145.195 698.211 145.237 698.392C145.28 698.563 145.376 698.749 145.525 698.952C145.685 699.155 145.931 699.331 146.261 699.48C146.603 699.629 147.061 699.704 147.637 699.704C148.267 699.704 148.731 699.587 149.029 699.352C149.339 699.117 149.493 698.867 149.493 698.6C149.493 698.301 149.387 698.067 149.173 697.896C148.971 697.715 148.693 697.571 148.341 697.464C148 697.347 147.621 697.24 147.205 697.144C146.8 697.048 146.389 696.941 145.973 696.824C145.568 696.696 145.195 696.531 144.853 696.328C144.523 696.115 144.261 695.843 144.069 695.512C143.877 695.181 143.792 694.76 143.813 694.248C143.867 693.491 144.229 692.899 144.901 692.472C145.573 692.045 146.464 691.832 147.573 691.832C148.213 691.832 148.805 691.949 149.349 692.184C149.904 692.408 150.347 692.749 150.677 693.208C151.019 693.656 151.189 694.232 151.189 694.936H149.605C149.605 694.605 149.531 694.339 149.381 694.136C149.232 693.923 149.04 693.763 148.805 693.656C148.581 693.539 148.341 693.464 148.085 693.432C147.829 693.389 147.6 693.368 147.397 693.368C146.864 693.368 146.421 693.459 146.069 693.64C145.728 693.821 145.557 694.088 145.557 694.44C145.547 694.739 145.648 694.979 145.861 695.16C146.075 695.341 146.357 695.485 146.709 695.592C147.061 695.699 147.445 695.795 147.861 695.88C148.277 695.965 148.693 696.072 149.109 696.2C149.525 696.317 149.904 696.477 150.245 696.68C150.587 696.872 150.853 697.139 151.045 697.48C151.237 697.811 151.317 698.243 151.285 698.776C151.243 699.533 150.875 700.125 150.181 700.552C149.488 700.968 148.603 701.176 147.525 701.176Z" fill="black"/>
</g>
<defs>
<clipPath id="clip0_2_13">
<rect width="390" height="844" rx="20" fill="white"/>
</clipPath>
</defs>
</svg>
